# xmcd
# 
# Track frame offsets:
#     150
#     13934
#     31802
#     49193
#     65124
#     83870
#     107044
#     121117
#     136175
#     155359
#     173866
#     186013
#     199352
# 
# Disc length: 2823
# 
# Revision: 8
# Processed by: cddbd v1.5.2PL0 Copyright (c) Steve Scherf et al.
# Submitted via: fre:ac v1.0.31
# 
DISCID=af0b050d
DTITLE=John Mellencamp - Sad Clowns And Hillbillies
DYEAR=2017
DGENRE=Rock/Pop
TTITLE0=Mobile Blue
TTITLE1=Battle of Angels
TTITLE2=Grandview (ft Martina McBride)
TTITLE3=Indigo Sunset (ft Carlene Carter)
TTITLE4=What Kind of Man Am I? (ft Carlene Carter)
TTITLE5=All Night Talk Radio
TTITLE6=Sugar Hill Mountain (ft Carlene Carter)
TTITLE7=You Are Blind
TTITLE8=Damascus Road (ft Carlene Carter)
TTITLE9=Early Bird Cafe
TTITLE10=Sad Clowns
TTITLE11=My Soul's Got Wings (ft Carlene Carter)
TTITLE12=Easy Target
EXTD=Disregard my previous submission for this CD. I stated it was not country, but I was thinking of a different CD of his. My bad...
EXTT0=
EXTT1=
EXTT2=
EXTT3=
EXTT4=
EXTT5=
EXTT6=
EXTT7=
EXTT8=
EXTT9=
EXTT10=
EXTT11=
EXTT12=
PLAYORDER=
